<svg xmlns="http://www.w3.org/2000/svg" viewBox="0 0 160 144.79"><defs><style>.cls-1{fill:#e53433;}.cls-2{fill:#5d80c1;}</style></defs><title>Joker-RB</title><g id="Layer_2" data-name="Layer 2"><g id="vertical"><g id="logo"><g id="logo_icon" data-name="logo icon"><rect id="shape" class="cls-1" x="60.47" y="130.97" width="50.11" height="13.82"/><rect id="shape-2" data-name="shape" class="cls-2" x="10.37" y="130.97" width="50.11" height="13.82"/><rect id="shape-3" data-name="shape" class="cls-2" x="60.47" y="130.97" width="50.11" height="3.46"/><rect id="shape-4" data-name="shape" class="cls-1" x="10.37" y="130.97" width="50.11" height="3.46"/><path id="shape-5" data-name="shape" class="cls-1" d="M10.37,131V51.14L40.09,82.59s5.76-56.24,63.79-64.19C81.1,38.24,82.71,77.75,82.71,77.75s11.28-18.89,33-17.48c23.29,1.51,34.85,27.84,31.85,45.48-2.09-8.07-9.4-18.83-21.87-16.06-15.2,3.38-15.11,19.86-15.11,41.28Z"/><path id="shape-6" data-name="shape" class="cls-2" d="M60.47,39.68C42.55,58.55,40.09,82.59,40.09,82.59L10.37,51.14V131h50.1Z"/><polygon id="shape-7" data-name="shape" class="cls-2" points="20.73 104.93 10.37 117.03 0 104.93 10.37 92.84 20.73 104.93"/><polygon id="shape-8" data-name="shape" class="cls-1" points="20.73 104.93 10.37 117.03 0 104.93 10.37 113.57 20.73 104.93"/><polygon id="shape-9" data-name="shape" class="cls-1" points="60.47 117.03 50.11 104.93 60.47 92.84 60.47 117.03"/><polygon id="shape-10" data-name="shape" class="cls-1" points="60.47 113.57 50.11 104.93 60.47 117.03 60.47 113.57"/><circle id="shape-11" data-name="shape" class="cls-1" cx="108.51" cy="13.82" r="13.82" transform="translate(93.33 122.15) rotate(-89.28)"/><path id="shape-12" data-name="shape" class="cls-2" d="M108.51,24.19A13.82,13.82,0,0,1,94.8,12.1a13.82,13.82,0,1,0,27.42,0A13.82,13.82,0,0,1,108.51,24.19Z"/><path id="shape-13" data-name="shape" class="cls-1" d="M160,107.82a12.1,12.1,0,1,1-12.1-12.1A12.09,12.09,0,0,1,160,107.82Z"/><path id="shape-14" data-name="shape" class="cls-2" d="M147.9,116.46a12.08,12.08,0,0,1-12-10.37,11,11,0,0,0-.13,1.73,12.1,12.1,0,0,0,24.19,0,12.36,12.36,0,0,0-.13-1.73A12.09,12.09,0,0,1,147.9,116.46Z"/><path id="shape-15" data-name="shape" class="cls-2" d="M17.28,51.14a6.91,6.91,0,1,1-6.91-6.91A6.92,6.92,0,0,1,17.28,51.14Z"/><path id="shape-16" data-name="shape" class="cls-1" d="M10.37,54.6a6.91,6.91,0,0,1-6.69-5.18,7,7,0,0,0-.22,1.72,6.91,6.91,0,1,0,13.82,0,7,7,0,0,0-.23-1.72A6.9,6.9,0,0,1,10.37,54.6Z"/><path id="shape-17" data-name="shape" class="cls-2" d="M95.82,65.13A41.14,41.14,0,0,0,82.71,77.75a69.55,69.55,0,0,0,3,20.39C85.7,89.16,86.83,75.16,95.82,65.13Z"/></g></g></g></g></svg>